<?xml version="1.0" standalone="no"?>
<!DOCTYPE svg PUBLIC "-//W3C//DTD SVG 20010904//EN"
 "http://www.w3.org/TR/2001/REC-SVG-20010904/DTD/svg10.dtd">
<svg version="1.0" xmlns="http://www.w3.org/2000/svg"
 width="24.000000pt" height="24.000000pt" viewBox="0 0 24.000000 24.000000"
 preserveAspectRatio="xMidYMid meet">

<g transform="translate(0.000000,24.000000) scale(0.100000,-0.100000)"
fill="#000000" stroke="none">
<path d="M70 223 c-95 -49 -83 -183 20 -214 53 -16 107 10 134 65 17 36 18 43
5 79 -25 71 -96 102 -159 70z m115 -38 c19 -18 25 -35 25 -65 0 -56 -34 -90
-90 -90 -56 0 -90 34 -90 90 0 56 34 90 90 90 30 0 47 -6 65 -25z"/>
<path d="M133 160 c-24 -10 -43 -21 -43 -23 0 -3 -7 -21 -15 -41 l-15 -36 37
15 c21 9 41 19 45 23 7 8 40 82 36 82 -2 0 -22 -9 -45 -20z m-3 -40 c0 -5 -4
-10 -10 -10 -5 0 -10 5 -10 10 0 6 5 10 10 10 6 0 10 -4 10 -10z"/>
</g>
</svg>
